<svg xmlns="http://www.w3.org/2000/svg" xmlns:xlink="http://www.w3.org/1999/xlink" width="496.183" height="348.585" viewBox="0 0 131.282 92.23"><defs><linearGradient id="b"><stop offset="0" stop-color="#00d0bd"/><stop offset="1" stop-color="#00d0bd" stop-opacity="0"/></linearGradient><linearGradient xlink:href="#a" id="l" x1="124.826" y1="208.1" x2="176.154" y2="115.76" gradientUnits="userSpaceOnUse" gradientTransform="translate(28.318 -51.48)"/><linearGradient id="a"><stop offset="0" stop-color="#ff7043"/><stop offset="1" stop-color="#fbbe4f"/></linearGradient><linearGradient xlink:href="#b" id="c" gradientUnits="userSpaceOnUse" x1="116.795" y1="161.314" x2="154.447" y2="161.314" gradientTransform="translate(21.41 -60.587)"/><linearGradient xlink:href="#b" id="d" gradientUnits="userSpaceOnUse" x1="116.795" y1="161.314" x2="154.447" y2="161.314" gradientTransform="translate(21.41 -56.618)"/><linearGradient xlink:href="#b" id="e" gradientUnits="userSpaceOnUse" x1="116.795" y1="161.314" x2="154.447" y2="161.314" gradientTransform="translate(21.41 -52.65)"/><linearGradient xlink:href="#b" id="f" gradientUnits="userSpaceOnUse" x1="116.795" y1="161.314" x2="154.447" y2="161.314" gradientTransform="translate(-13.596 -60.587)"/><linearGradient xlink:href="#b" id="g" gradientUnits="userSpaceOnUse" x1="116.795" y1="161.314" x2="154.447" y2="161.314" gradientTransform="translate(-13.596 -56.618)"/><linearGradient xlink:href="#b" id="h" gradientUnits="userSpaceOnUse" x1="116.795" y1="161.314" x2="154.447" y2="161.314" gradientTransform="translate(-13.596 -52.65)"/><linearGradient xlink:href="#b" id="i" gradientUnits="userSpaceOnUse" x1="116.795" y1="161.314" x2="154.447" y2="161.314" gradientTransform="translate(-48.602 -60.587)"/><linearGradient xlink:href="#b" id="j" gradientUnits="userSpaceOnUse" x1="116.795" y1="161.314" x2="154.447" y2="161.314" gradientTransform="translate(-48.602 -56.618)"/><linearGradient xlink:href="#b" id="k" gradientUnits="userSpaceOnUse" x1="116.795" y1="161.314" x2="154.447" y2="161.314" gradientTransform="translate(-48.602 -52.65)"/></defs><path fill="url(#c)" d="M143.467 122.792h37.652v23.27h-37.652z" transform="translate(-73.454 -59.75)"/><path fill="url(#d)" d="M143.467 94.23h37.652v23.27h-37.652z" transform="translate(-73.454 -59.75)"/><path fill="url(#e)" d="M143.467 65.668h37.652v23.27h-37.652z" transform="translate(-73.454 -59.75)"/><path fill="url(#f)" d="M108.461 122.792h37.652v23.27h-37.652z" transform="translate(-73.454 -59.75)"/><path fill="url(#g)" d="M108.461 94.23h37.652v23.27h-37.652z" transform="translate(-73.454 -59.75)"/><path fill="url(#h)" d="M108.461 65.668h37.652v23.27h-37.652z" transform="translate(-73.454 -59.75)"/><path fill="url(#i)" d="M73.454 122.792h37.652v23.27H73.454z" transform="translate(-73.454 -59.75)"/><path fill="url(#j)" d="M73.454 94.23h37.652v23.27H73.454z" transform="translate(-73.454 -59.75)"/><path fill="url(#k)" d="M73.454 65.668h37.652v23.27H73.454z" transform="translate(-73.454 -59.75)"/><path d="M171.25 63.41c-.015.004-.025.006-.029.012-.064.088.218.687.627 1.33 2.656 4.184 4.469 9.745 4.276 13.115-.277 4.838-2.433 8.666-8.759 15.549-5.676 6.175-9.208 10.776-10.884 14.174-1.07 2.17-2.159 5.666-2.566 8.241-.338 2.133-.332 2.566.086 7.024.386 4.107.54 5.054 1.143 6.977 2.178 6.96 5.732 12.168 11.051 16.196 4.935 3.737 9.638 6.06 17.065 8.428 2.11.673 3.927 1.205 4.04 1.182.115-.023-.178-.648-.648-1.39-1.264-1.995-2.751-5.169-3.443-7.35-.815-2.564-1.078-6.372-.583-8.439.94-3.926 2.955-6.987 8.702-13.223 7.652-8.302 10.884-13.165 12.457-18.746 2.667-9.457-.44-22.204-7.243-29.714-4.71-5.2-12.375-9.564-22.01-12.53-1.647-.508-3.06-.865-3.283-.835z" fill="url(#l)" transform="translate(-73.454 -63.409)"/></svg>